<svg width="42" height="42" viewBox="0 0 42 42" fill="none" xmlns="http://www.w3.org/2000/svg">
<rect width="42" height="42" rx="21" fill="white"/>
<path d="M26.7619 21.4884L21.4883 26.762C21.3588 26.8915 21.1832 26.9642 21 26.9642C20.8169 26.9642 20.6412 26.8915 20.5117 26.762C20.3822 26.6325 20.3095 26.4568 20.3095 26.2737C20.3095 26.0906 20.3822 25.9149 20.5117 25.7854L24.6064 21.6907L15.7264 21.6907C15.5433 21.6907 15.3677 21.6179 15.2382 21.4884C15.1086 21.3589 15.0359 21.1833 15.0359 21.0001C15.0359 20.817 15.1086 20.6414 15.2382 20.5118C15.3677 20.3823 15.5433 20.3096 15.7264 20.3096L24.6064 20.3096L20.5117 16.2149C20.3822 16.0854 20.3095 15.9097 20.3095 15.7266C20.3095 15.5434 20.3822 15.3678 20.5117 15.2383C20.6412 15.1088 20.8169 15.036 21 15.036C21.1832 15.036 21.3588 15.1088 21.4883 15.2383L26.7619 20.5119C26.8914 20.6414 26.9641 20.817 26.9641 21.0001C26.9641 21.1833 26.8914 21.3589 26.7619 21.4884Z" fill="#FB7125"/>
</svg>
