<svg width="44" height="44" viewBox="0 0 44 44" fill="none" xmlns="http://www.w3.org/2000/svg">
<rect width="43.5" height="43.5" rx="21.75" transform="matrix(1 0 0 -1 0.5 44)" fill="white"/>
<path d="M28.1818 27.2548V17.2449C28.1818 16.9991 28.0841 16.7633 27.9103 16.5895C27.7365 16.4157 27.5007 16.318 27.2549 16.318C27.0091 16.318 26.7733 16.4157 26.5995 16.5895C26.4257 16.7633 26.3281 16.9991 26.3281 17.2449V25.0172L17.9004 16.5895C17.7265 16.4157 17.4908 16.318 17.245 16.318C16.9992 16.318 16.7634 16.4157 16.5896 16.5895C16.4158 16.7633 16.3181 16.999 16.3181 17.2449C16.3181 17.4907 16.4158 17.7264 16.5896 17.9002L25.0173 26.328H17.245C16.9992 26.328 16.7634 26.4256 16.5896 26.5994C16.4158 26.7732 16.3181 27.009 16.3181 27.2548C16.3181 27.5006 16.4158 27.7364 16.5896 27.9102C16.7634 28.084 16.9992 28.1816 17.245 28.1816H27.2549C27.5007 28.1816 27.7365 28.084 27.9103 27.9102C28.0841 27.7364 28.1818 27.5006 28.1818 27.2548Z" fill="#111111"/>
</svg>
