<svg width="48" height="48" viewBox="0 0 48 48" fill="none" xmlns="http://www.w3.org/2000/svg">
<g clip-path="url(#clip0_2029_24)">
<path d="M0.654302 24.0627C0.138321 24.2527 -0.127639 24.8246 0.0603233 25.3426L0.688332 27.0705L5.47007 22.2887L0.654302 24.0627ZM5.18011 39.4221L8.06001 47.3418C8.10462 47.4655 8.17338 47.5791 8.26231 47.6759C8.35123 47.7727 8.45853 47.8509 8.57796 47.9058C8.71014 47.9674 8.85411 47.9995 8.99992 47.9999C9.11794 47.9999 9.23391 47.9799 9.34593 47.9379L12.5239 46.766L5.18011 39.4221ZM47.9386 32.6604L44.6428 23.5987L36.7331 31.5084L40.6529 30.0644C41.1669 29.8684 41.7469 30.1364 41.9369 30.6564C42.1289 31.1744 41.8629 31.7504 41.3449 31.9404L36.365 33.7763C36.2543 33.8173 36.1371 33.8383 36.019 33.8383C35.613 33.8383 35.229 33.5883 35.0811 33.1843C35.0791 33.1783 35.0811 33.1723 35.0791 33.1663L26.6974 41.548L47.3447 33.9403C47.8626 33.7504 48.1286 33.1783 47.9386 32.6604ZM47.7066 16.2929L31.7071 0.293466C31.3172 -0.09652 30.6832 -0.09652 30.2932 0.293466L0.294221 30.2924C-0.0957649 30.6824 -0.0957649 31.3164 0.294221 31.7064L16.2937 47.7059C16.386 47.7992 16.4959 47.8733 16.6172 47.9238C16.7384 47.9743 16.8684 48.0001 16.9997 47.9999C17.2557 47.9999 17.5116 47.9019 17.7077 47.7078L47.7066 17.7089C47.8939 17.5209 47.9991 17.2663 47.9991 17.0009C47.9991 16.7355 47.8939 16.4809 47.7066 16.2929ZM11.7079 27.7086L7.70799 31.7084C7.51979 31.8953 7.26529 32.0002 7.00002 32.0002C6.73475 32.0002 6.48024 31.8953 6.29204 31.7084C5.90205 31.3184 5.90205 30.6844 6.29204 30.2944L10.2919 26.2945C10.6819 25.9045 11.3159 25.9045 11.7059 26.2945C12.0959 26.6846 12.0979 27.3165 11.7079 27.7086ZM28.9772 28.9785C28.2693 29.6864 27.3073 30.0265 26.2373 30.0265C24.4693 30.0265 22.4034 29.1005 20.6755 27.3705C19.4115 26.1065 18.5235 24.5946 18.1776 23.1147C17.7936 21.4648 18.1097 20.0288 19.0676 19.0689C20.0256 18.1089 21.4615 17.7929 23.1134 18.1789C24.5934 18.525 26.1053 19.4109 27.3692 20.6768C30.1472 23.4527 30.8552 27.1005 28.9772 28.9785ZM41.7068 17.7089L37.7069 21.7088C37.5187 21.8957 37.2642 22.0006 36.999 22.0006C36.7337 22.0006 36.4792 21.8957 36.291 21.7088C35.901 21.3188 35.901 20.6848 36.291 20.2948L40.2909 16.2949C40.6809 15.9049 41.3149 15.9049 41.7049 16.2949C42.0948 16.6849 42.0968 17.3169 41.7068 17.7089Z" fill="#FB7125"/>
</g>
<defs>
<clipPath id="clip0_2029_24">
<rect width="48" height="48" fill="white"/>
</clipPath>
</defs>
</svg>
