<svg width="34" height="25" viewBox="0 0 34 25" fill="none" xmlns="http://www.w3.org/2000/svg">
<path fill-rule="evenodd" clip-rule="evenodd" d="M26.509 7.13416C27.725 5.43016 30.0226 3.59816 33.149 2.07016C33.9634 1.67336 33.597 0.444565 32.6994 0.558165C26.1266 1.39017 21.8658 4.26856 19.5394 8.54856C18.6977 10.1148 18.1234 11.8107 17.8402 13.5662C17.6498 14.707 17.6002 15.563 17.6002 16.5518C17.6002 18.6735 18.4431 20.7083 19.9434 22.2086C21.4437 23.7089 23.4785 24.5518 25.6002 24.5518C27.722 24.5518 29.7568 23.7089 31.2571 22.2086C32.7574 20.7083 33.6002 18.6735 33.6002 16.5518C33.6002 12.1342 29.9602 8.54856 25.7794 8.54856C26.0002 7.94376 26.0514 7.77256 26.509 7.13416ZM8.90904 7.13416C10.125 5.43016 12.4226 3.59816 15.549 2.07016C16.3634 1.67336 15.997 0.444565 15.0994 0.558165C8.52664 1.39017 4.26584 4.26856 1.93944 8.54856C1.09768 10.1148 0.523379 11.8107 0.240244 13.5662C0.0498443 14.707 0.000244141 15.563 0.000244141 16.5518C0.000244125 17.6023 0.20717 18.6426 0.609208 19.6132C1.01125 20.5838 1.60052 21.4658 2.34339 22.2086C3.08626 22.9515 3.96817 23.5408 4.93878 23.9428C5.90938 24.3448 6.94967 24.5518 8.00024 24.5518C9.05082 24.5518 10.0911 24.3448 11.0617 23.9428C12.0323 23.5408 12.9142 22.9515 13.6571 22.2086C14.4 21.4658 14.9892 20.5838 15.3913 19.6132C15.7933 18.6426 16.0002 17.6023 16.0002 16.5518C16.0002 12.1342 12.3602 8.54856 8.17945 8.54856C8.40024 7.94376 8.45144 7.77256 8.90904 7.13416Z" fill="#FB7125"/>
</svg>
