<svg width="16" height="12" viewBox="0 0 16 12" fill="none" xmlns="http://www.w3.org/2000/svg">
<path d="M8.26758 11.5946C8.16909 11.5972 8.07194 11.5713 7.98785 11.5199C7.74011 11.3674 7.66465 11.0362 7.81371 10.7887C7.82625 10.7669 9.38331 8.16847 12.3556 6.53327H0.800911C0.506778 6.53327 0.267578 6.29407 0.267578 5.99993C0.267578 5.7058 0.506778 5.4666 0.800911 5.4666H12.3556C9.39985 3.84073 7.82518 1.23087 7.80971 1.20473C7.66385 0.955666 7.74465 0.624199 7.99345 0.476733C8.24571 0.327133 8.57798 0.4138 8.72865 0.6674C8.97105 1.05407 11.2441 4.52047 15.3212 5.47967C15.5652 5.53967 15.7342 5.75327 15.7342 6.0002C15.7342 6.24713 15.5662 6.46127 15.3257 6.51967C11.2313 7.48233 8.96598 10.9533 8.72118 11.3461C8.62518 11.4999 8.44758 11.5911 8.26758 11.5946Z" fill="#FB7125"/>
</svg>
