<svg width="46" height="46" viewBox="0 0 46 46" fill="none" xmlns="http://www.w3.org/2000/svg">
<path d="M44.0599 39.0049L32.0599 27.0049C34.3239 23.4932 35.2091 19.2683 34.5452 15.1431C33.8813 11.0179 31.7152 7.28403 28.4637 4.65997C25.2123 2.03591 21.1052 0.707091 16.9328 0.92923C12.7605 1.15137 8.81771 2.90877 5.86324 5.86324C2.90877 8.81771 1.15137 12.7605 0.92923 16.9328C0.707091 21.1052 2.03591 25.2123 4.65997 28.4637C7.28403 31.7152 11.0179 33.8813 15.1431 34.5452C19.2683 35.2091 23.4932 34.3239 27.0049 32.0599L39.0049 44.0599C39.3369 44.3914 39.7308 44.6542 40.1643 44.8333C40.5978 45.0125 41.0623 45.1046 41.5313 45.1042C42.0004 45.1039 42.4648 45.0111 42.898 44.8313C43.3312 44.6515 43.7248 44.3881 44.0562 44.0562C44.3876 43.7243 44.6504 43.3303 44.8296 42.8969C45.0088 42.4634 45.1008 41.9988 45.1005 41.5298C45.1001 41.0607 45.0074 40.5964 44.8276 40.1631C44.6477 39.7299 44.3844 39.3364 44.0524 39.0049H44.0599ZM7.44494 28.2499C5.39649 26.1941 4.00311 23.5774 3.44076 20.7302C2.87841 17.8831 3.1723 14.9331 4.28533 12.2529C5.39835 9.5726 7.28059 7.28223 9.69438 5.67096C12.1082 4.05968 14.9453 3.19975 17.8474 3.19975C20.7496 3.19975 23.5867 4.05968 26.0005 5.67096C28.4143 7.28223 30.2965 9.5726 31.4096 12.2529C32.5226 14.9331 32.8165 17.8831 32.2541 20.7302C31.6918 23.5774 30.2984 26.1941 28.2499 28.2499C26.8846 29.6174 25.2631 30.7022 23.4781 31.4424C21.6932 32.1825 19.7798 32.5635 17.8474 32.5635C15.9151 32.5635 14.0017 32.1825 12.2167 31.4424C10.4318 30.7022 8.81026 29.6174 7.44494 28.2499Z" fill="#FB7125"/>
</svg>
