<svg width="48" height="48" viewBox="0 0 48 48" fill="none" xmlns="http://www.w3.org/2000/svg">
<path d="M46.9136 9.72202C46.7816 9.56725 46.6176 9.44296 46.4329 9.35772C46.2482 9.27249 46.0472 9.22834 45.8438 9.22833H13.3703L13.1438 7.49686C12.9348 5.90273 12.1597 4.44567 10.9612 3.39408C9.76275 2.34277 8.21747 1.76367 6.61003 1.76367H2.15625C1.37963 1.76367 0.75 2.3933 0.75 3.16992C0.75 3.94655 1.37963 4.57617 2.15625 4.57617H6.61003C8.5305 4.57617 10.1056 5.95814 10.3551 7.86192L13.3478 30.7425L13.2558 30.7505C10.7689 30.9683 8.90766 33.0912 9.01847 35.5814C9.12563 38.0735 11.1626 40.0231 13.6577 40.0231H13.665L15.1266 40.0208C14.9068 40.5597 14.794 41.1361 14.7943 41.718C14.7943 44.2093 16.8199 46.236 19.3097 46.236C21.7995 46.236 23.8277 44.2093 23.8277 41.718C23.828 41.1312 23.7133 40.55 23.4899 40.0073L32.5056 39.9928C32.2861 40.5313 32.1733 41.1073 32.1736 41.6889C32.1736 44.1802 34.2004 46.207 36.6916 46.207C39.1828 46.207 41.207 44.1802 41.207 41.6889C41.207 39.1976 39.1814 37.1735 36.6916 37.1735H36.6893L13.6605 37.2106H13.6576C13.1853 37.2119 12.7308 37.0301 12.3897 36.7034C12.0486 36.3767 11.8473 35.9305 11.8282 35.4585C11.7844 34.4756 12.5192 33.6383 13.4998 33.5524L39.7863 31.2724C42.3236 31.0532 44.2993 29.2158 44.7024 26.6997L47.2323 10.8563C47.2643 10.6554 47.2524 10.45 47.1974 10.2541C47.1424 10.0583 47.0455 9.87671 46.9135 9.72192L46.9136 9.72202ZM19.3097 43.4236C18.3707 43.4236 17.6068 42.6585 17.6068 41.7181C17.6068 40.7777 18.3707 40.0152 19.3097 40.0152C20.2487 40.0152 21.0152 40.779 21.0152 41.7181C21.0152 42.6572 20.2501 43.4236 19.3097 43.4236ZM38.3946 41.6889C38.3946 42.6294 37.6307 43.3945 36.6917 43.3945C35.7527 43.3945 34.9862 42.6294 34.9862 41.6889C34.9862 40.7484 35.7513 39.986 36.6916 39.986H36.6918C37.6307 39.986 38.3946 40.75 38.3946 41.6889ZM21.4794 26.3474C21.4347 26.3516 21.3903 26.3536 21.3462 26.3536C20.6288 26.3536 20.0162 25.8074 19.9478 25.0788L19.0656 15.6902C18.993 14.917 19.5608 14.2313 20.3341 14.1586C21.1064 14.0861 21.793 14.6539 21.8658 15.4272L22.748 24.8158C22.8205 25.589 22.2527 26.2747 21.4794 26.3474ZM30.4632 24.9473C30.4632 25.7239 29.8336 26.3535 29.057 26.3535C28.2803 26.3535 27.6507 25.7239 27.6507 24.9473V15.5587C27.6507 14.7821 28.2803 14.1525 29.057 14.1525C29.8336 14.1525 30.4632 14.7821 30.4632 15.5587V24.9473ZM39.0483 15.6907L38.1635 25.0793C38.0948 25.8076 37.4822 26.3536 36.7651 26.3536C36.7208 26.3536 36.6764 26.3516 36.6315 26.3474C35.8583 26.2745 35.2905 25.5886 35.3634 24.8154L36.2483 15.4268C36.321 14.6535 37.0072 14.085 37.7802 14.1587C38.5535 14.2316 39.1212 14.9175 39.0483 15.6907Z" fill="#FB7125"/>
</svg>
